<?xml version="1.0" encoding="utf-8"?>
<!-- Generator: Adobe Illustrator 21.1.0, SVG Export Plug-In . SVG Version: 6.00 Build 0)  -->
<svg version="1.1" id="Layer_1" xmlns="http://www.w3.org/2000/svg" xmlns:xlink="http://www.w3.org/1999/xlink" x="0px" y="0px"
	 viewBox="0 0 1366 378" style="enable-background:new 0 0 1366 378;" xml:space="preserve">
<style type="text/css">
	.st0{fill:none;stroke:#FFFFFF;stroke-width:3;stroke-miterlimit:10;}
</style>
<g>
	<path class="st0" d="M152.9,120.3c-6.4-5.2-12.8-9-19.2-11.6c-6.4-2.5-12.6-3.8-18.6-3.8c-7.6,0-13.8,1.8-18.6,5.4
		c-4.8,3.6-7.2,8.3-7.2,14.1c0,4,1.2,7.3,3.6,9.9c2.4,2.6,5.6,4.9,9.5,6.8c3.9,1.9,8.3,3.6,13.2,5c4.9,1.4,9.8,2.9,14.6,4.5
		c19.2,6.4,33.2,15,42.1,25.6c8.9,10.7,13.4,24.7,13.4,41.9c0,11.6-2,22.1-5.9,31.5c-3.9,9.4-9.6,17.5-17.1,24.1
		c-7.5,6.7-16.7,11.9-27.6,15.6c-10.9,3.7-23.2,5.5-37,5.5c-28.6,0-55.1-8.5-79.5-25.5L43.7,222c8.8,7.8,17.5,13.6,26.1,17.4
		c8.6,3.8,17.1,5.7,25.5,5.7c9.6,0,16.7-2.2,21.5-6.6c4.7-4.4,7-9.4,7-15c0-3.4-0.6-6.3-1.8-8.8c-1.2-2.5-3.2-4.8-6-6.9
		c-2.8-2.1-6.5-4-11-5.8s-10-3.8-16.3-6c-7.6-2.4-15.1-5-22.4-8c-7.3-2.9-13.8-6.8-19.5-11.5c-5.7-4.8-10.3-10.8-13.8-18.2
		c-3.5-7.3-5.2-16.5-5.2-27.8c0-11.2,1.8-21.3,5.6-30.4C37.1,91,42.3,83.2,49,76.7c6.7-6.5,14.9-11.5,24.6-15.1
		c9.7-3.6,20.6-5.4,32.6-5.4c11.2,0,22.9,1.6,35.1,4.6c12.2,3.1,23.9,7.6,35.1,13.6L152.9,120.3z"/>
	<path class="st0" d="M217.4,39.6h54.3v114.6c7.4-9,14.9-15,22.5-18.1c7.6-3.1,16.5-4.7,26.7-4.7c19.4,0,34,5.4,43.9,16.1
		c9.9,10.7,14.9,25.2,14.9,43.4v97.8h-54.3v-77.7c0-7.8-0.6-14.1-1.8-18.9c-1.2-4.8-3.2-8.5-6-11.1c-4.8-4.2-10.6-6.3-17.4-6.3
		c-9.2,0-16.3,2.8-21.1,8.2c-4.9,5.5-7.4,13.3-7.4,23.5v82.2h-54.3V39.6z"/>
	<path class="st0" d="M535.4,134.7H590v153.9h-54.6v-17.1c-11.6,14.6-27.3,21.9-47.1,21.9c-11.2,0-21.5-2.1-30.9-6.2
		c-9.4-4.1-17.6-9.8-24.6-17.2c-7-7.4-12.5-16.1-16.4-26.1c-3.9-10-5.9-20.9-5.9-32.7c0-11,1.9-21.5,5.7-31.3
		c3.8-9.9,9.1-18.5,15.9-26c6.8-7.4,14.9-13.2,24.3-17.5c9.4-4.3,19.8-6.5,31.2-6.5c19.2,0,35.1,6.7,47.7,20.1V134.7z M467,211.2
		c0,5,0.9,9.7,2.7,14c1.8,4.3,4.2,8.1,7.3,11.2c3.1,3.2,6.8,5.7,11.1,7.5c4.3,1.8,8.9,2.7,13.9,2.7c4.8,0,9.3-0.9,13.7-2.7
		c4.3-1.8,8-4.3,11.1-7.5c3.1-3.2,5.6-6.9,7.5-11.1c1.9-4.2,2.9-8.7,2.9-13.5c0-4.8-1-9.3-2.9-13.7c-1.9-4.3-4.4-8-7.5-11.2
		c-3.1-3.2-6.8-5.7-11.1-7.5c-4.3-1.8-8.8-2.7-13.7-2.7c-5,0-9.7,0.9-13.9,2.7c-4.3,1.8-8,4.3-11.1,7.5c-3.1,3.2-5.6,6.9-7.3,11
		C467.9,202,467,206.4,467,211.2z"/>
	<path class="st0" d="M626.9,134.7h54.3v19.5c7.4-9,14.9-15,22.5-18.1c7.6-3.1,16.5-4.7,26.7-4.7c10.8,0,20,1.8,27.8,5.2
		c7.7,3.5,14.2,8.5,19.7,14.9c4.4,5.2,7.4,11,9,17.4c1.6,6.4,2.4,13.7,2.4,21.9v97.8h-54.3v-77.7c0-7.6-0.6-13.7-1.6-18.5
		c-1.1-4.7-3.1-8.4-5.9-11.2c-2.4-2.4-5.1-4.1-8.1-5.1c-3-1-6.2-1.5-9.6-1.5c-9.2,0-16.3,2.8-21.2,8.2c-4.9,5.5-7.3,13.3-7.3,23.5
		v82.2h-54.3V134.7z"/>
	<path class="st0" d="M998.3,134.7v143.4c0,8.6-0.5,16.3-1.5,23.1c-1,6.8-2.4,12.8-4.2,18c-2.4,6.6-6.1,12.8-11.2,18.5
		c-5.1,5.7-11.2,10.7-18.4,14.8c-7.2,4.2-15.4,7.5-24.5,9.9c-9.1,2.4-19,3.6-29.5,3.6c-12,0-23-1.5-33-4.5c-10-3-18.8-7.2-26.2-12.4
		c-7.5-5.3-13.7-11.5-18.5-18.6c-4.8-7.1-8-14.8-9.6-23.2h61.2c3.8,10.2,12.4,15.3,25.8,15.3c11.4,0,20.1-3.2,26.2-9.6
		c6.1-6.4,9.2-15.3,9.2-26.7v-14.7c-4,3.8-7.9,7-11.5,9.5c-3.7,2.5-7.5,4.6-11.2,6.2c-3.8,1.6-7.8,2.7-12,3.5c-4.2,0.7-8.8,1-13.8,1
		c-11,0-21.1-1.9-30.3-5.7c-9.2-3.8-17.2-9.1-23.8-15.9c-6.7-6.8-11.9-14.9-15.6-24.4c-3.7-9.5-5.6-20-5.6-31.7
		c0-11.8,2-22.7,6-32.8c4-10.1,9.5-18.9,16.4-26.4c6.9-7.5,15.1-13.4,24.6-17.7c9.5-4.3,19.8-6.5,31-6.5c18.2,0,33.5,6.8,45.9,20.4
		v-16.2H998.3z M876.5,210.9c0,5,0.9,9.7,2.7,14c1.8,4.3,4.2,8.1,7.3,11.2c3.1,3.2,6.8,5.7,11.1,7.5c4.3,1.8,8.9,2.7,13.9,2.7
		c4.8,0,9.3-0.9,13.7-2.7c4.3-1.8,8-4.3,11.1-7.5c3.1-3.2,5.6-6.9,7.5-11.2c1.9-4.3,2.9-8.9,2.9-13.7c0-5-1-9.6-2.9-13.8
		c-1.9-4.2-4.5-7.9-7.6-11.1c-3.2-3.2-7-5.7-11.2-7.5c-4.3-1.8-8.8-2.7-13.4-2.7c-4.8,0-9.3,1-13.5,2.8c-4.2,1.9-7.9,4.4-11.1,7.5
		c-3.2,3.1-5.8,6.8-7.7,11C877.4,201.6,876.5,206.1,876.5,210.9z"/>
	<path class="st0" d="M1035.2,134.7h54.3v19.5c7.4-9,14.9-15,22.5-18.1c7.6-3.1,16.5-4.7,26.7-4.7c10.8,0,20,1.8,27.8,5.2
		c7.7,3.5,14.2,8.5,19.7,14.9c4.4,5.2,7.4,11,9,17.4c1.6,6.4,2.4,13.7,2.4,21.9v97.8h-54.3v-77.7c0-7.6-0.6-13.7-1.6-18.5
		c-1.1-4.7-3.1-8.4-5.9-11.2c-2.4-2.4-5.1-4.1-8.1-5.1c-3-1-6.2-1.5-9.6-1.5c-9.2,0-16.3,2.8-21.2,8.2c-4.9,5.5-7.3,13.3-7.3,23.5
		v82.2h-54.3V134.7z"/>
	<path class="st0" d="M1230.8,75.6c0-4.2,0.8-8.1,2.4-11.9c1.6-3.7,3.8-6.9,6.6-9.8c2.8-2.8,6-5,9.8-6.6c3.7-1.6,7.7-2.4,11.8-2.4
		c4.2,0,8.1,0.8,11.9,2.4c3.7,1.6,6.9,3.8,9.8,6.6c2.8,2.8,5,6.1,6.6,9.8c1.6,3.7,2.4,7.6,2.4,11.9s-0.8,8.2-2.4,11.9
		c-1.6,3.7-3.8,7-6.6,9.8c-2.8,2.8-6.1,5-9.8,6.6c-3.7,1.6-7.7,2.4-11.9,2.4c-4.2,0-8.2-0.8-11.8-2.4c-3.7-1.6-7-3.8-9.8-6.6
		c-2.8-2.8-5-6-6.6-9.8C1231.6,83.8,1230.8,79.8,1230.8,75.6z M1288.7,134.7v153.9h-54.3V134.7H1288.7z"/>
</g>
<g>
</g>
<g>
</g>
<g>
</g>
<g>
</g>
<g>
</g>
</svg>
